General                          : ChattChitto RG - Movies [R2L]
==========
Complete name                    : The Marine 2 2009 720p H264 [ChattChitto RG] 
Format                           : MPEG-4
Format profile                   : Base Media
Codec ID                         : isom
File size                        : 1.77 GiB
Duration                         : 1h 35mn
Overall bit rate                 : 2 658 Kbps
Encoded date                     : UTC 2010-05-11 14:25:43

Video
==========
ID                               : 1
Format                           : AVC
Format/Info                      : Advanced Video Codec
Format profile                   : High@L3.1
Format settings, CABAC           : Yes
Format settings, ReFrames        : 3 frames
Codec ID                         : avc1
Codec ID/Info                    : Advanced Video Coding
Duration                         : 1h 35mn
Bit rate mode                    : Variable
Bit rate                         : 2 300 Kbps
Maximum bit rate                 : 16.2 Mbps
Width                            : 1 280 pixels
Height                           : 688 pixels
Display aspect ratio             : 1.860
Frame rate mode                  : Constant
Frame rate                       : 23.976 fps
Resolution                       : 8 bits
Colorimetry                      : 4:2:0
Scan type                        : Progressive
Bits/(Pixel*Frame)               : 0.109
Stream size                      : 1.53 GiB (87%)
Writing library                  : x264 core 76 r1271 496d79d
Encoded date                     : UTC 2010-05-11 13:39:23

Audio
==========
ID                               : 2
Format                           : AAC
Format/Info                      : Advanced Audio Codec
Format version                   : Version 4
Format profile                   : LC
Format settings, SBR             : No
Codec ID                         : 40
Duration                         : 1h 35mn
Bit rate mode                    : Variable
Bit rate                         : 352.8 Kbps
Maximum bit rate                 : 413 Kbps
Channel(s)                       : 6 channels
Channel positions                : Front: L C R, Side: L R, LFE
Sampling rate                    : 48.0 KHz
Stream size                      : 242 MiB (13%)
Encoded date                     : UTC 2010-05-11 14:26:36

Subtitles                        : English [SDH] | Portuguese | French


----------------------------------------------------
IMDB Link: http://www.imdb.com/title/tt1266027/
----------------------------------------------------



Screen Shots:
==============    
http://chattchitto.net/chattchittorg/movies/bdrip/2010/the_marine_2/1.png 
http://chattchitto.net/chattchittorg/movies/bdrip/2010/the_marine_2/2.png 
http://chattchitto.net/chattchittorg/movies/bdrip/2010/the_marine_2/3.png 
http://chattchitto.net/chattchittorg/movies/bdrip/2010/the_marine_2/4.png 
http://chattchitto.net/chattchittorg/movies/bdrip/2010/the_marine_2/5.png 
http://chattchitto.net/chattchittorg/movies/bdrip/2010/the_marine_2/6.png 
http://chattchitto.net/chattchittorg/movies/bdrip/2010/the_marine_2/7.png



ScreenShots Comparison:
=========================  
http://screenshotcomparison.com/comparison/19799



Plot:
======
While on temporary leave, Marine recon sniper Joe Linwood joins his wife Robin, a public relations executive, at the grand opening of a luxurious five-star resort on the South Seas. Unfortunately, their relaxing holiday soon comes to an end when a group of local rebels seize control of the property and take the billionaire owner, a group of guests and Robin hostage. With the victims in danger of being brutally murdered by a militant tyrant looking for a substantial ransom, Joe takes matters into his own hands in order to save his wife from certain death.



Release Info:
==============
original name .... : The Marine 2 2009 720p H264 [ChattChitto RG]
ripper.............: Recalled2Life (R2L)
encoder............: Recalled2Life (R2L)
video codec........: H264/.MP4
video bitrate......: 2300 Kbps
audio codec........: AAC-LC
aspect ratio.......: 1:85.1
resolution.........: 1280 x 688
genre..............: Action | Thriller
runtime............: 1h 35mn
language...........: English
rating.............: R
subtitles..........: English [SDH] | Portuguese | French
sample.............: Yes [7.66 MB]
2ch Audio..........: 2ch Audio for XBox Viewers
Compatibility .....: XBox 360 | PS3 | WD Live



Source:
========
The Marine 2 Blu-Ray 1080p MPEG-4 AVC/DTS-HD - R2L [28.4 GB] Thanks!



Notes:
=======
ChattChitto RG Encourages Burning this Film with ConvertXtoDVD and Playing with VLC media player.
XBox 360 | PS3 | WD Live - Compatible 
Enhanced for your viewing pleasure ;)